<svg width="1770" height="1380" viewBox="0 0 1770 1380" fill="none" xmlns="http://www.w3.org/2000/svg">
<rect width="1770" height="1380" fill="#F3797A"/>
<rect x="340" y="240" width="100" height="100" transform="rotate(90 340 240)" fill="#224225"/>
<rect x="740" y="240" width="100" height="100" transform="rotate(90 740 240)" fill="#224225"/>
<rect x="440" y="340" width="100" height="200" transform="rotate(90 440 340)" fill="#224225"/>
<rect x="840" y="340" width="100" height="200" transform="rotate(90 840 340)" fill="#224225"/>
<rect x="640" y="440" width="100" height="200" transform="rotate(90 640 440)" fill="#224225"/>
<rect x="240" y="440" width="100" height="100" fill="#224225"/>
<rect x="740" y="440" width="100" height="100" fill="#224225"/>
<rect x="240" y="540" width="100" height="100" fill="#224225"/>
<rect x="740" y="540" width="100" height="100" fill="#224225"/>
<rect x="1140" y="240" width="100" height="100" transform="rotate(90 1140 240)" fill="#224225"/>
<rect x="1340" y="240" width="100" height="200" transform="rotate(90 1340 240)" fill="#224225"/>
<rect x="1040" y="340" width="100" height="100" transform="rotate(90 1040 340)" fill="#224225"/>
<rect x="1140" y="340" width="100" height="100" transform="rotate(90 1140 340)" fill="#224225"/>
<rect x="1440" y="340" width="100" height="100" transform="rotate(90 1440 340)" fill="#224225"/>
<rect x="1140" y="440" width="100" height="100" transform="rotate(90 1140 440)" fill="#224225"/>
<rect x="1540" y="440" width="100" height="200" transform="rotate(90 1540 440)" fill="#224225"/>
<rect x="1340" y="540" width="100" height="200" transform="rotate(90 1340 540)" fill="#224225"/>
<rect x="1440" y="540" width="100" height="100" transform="rotate(90 1440 540)" fill="#224225"/>
<rect x="340" y="740" width="100" height="100" transform="rotate(90 340 740)" fill="#224225"/>
<rect x="440" y="740" width="100" height="100" transform="rotate(90 440 740)" fill="#224225"/>
<rect x="640" y="740" width="100" height="200" transform="rotate(90 640 740)" fill="#224225"/>
<rect x="740" y="740" width="100" height="100" transform="rotate(90 740 740)" fill="#224225"/>
<rect x="840" y="740" width="100" height="100" transform="rotate(90 840 740)" fill="#224225"/>
<rect x="340" y="840" width="100" height="100" transform="rotate(90 340 840)" fill="#224225"/>
<rect x="540" y="840" width="100" height="100" transform="rotate(90 540 840)" fill="#224225"/>
<rect x="640" y="840" width="100" height="100" transform="rotate(90 640 840)" fill="#224225"/>
<rect x="840" y="840" width="100" height="100" transform="rotate(90 840 840)" fill="#224225"/>
<rect x="540" y="940" width="100" height="100" transform="rotate(90 540 940)" fill="#224225"/>
<rect x="540" y="1040" width="100" height="100" transform="rotate(90 540 1040)" fill="#224225"/>
<rect x="640" y="1040" width="100" height="100" transform="rotate(90 640 1040)" fill="#224225"/>
<rect x="1340" y="740" width="100" height="200" transform="rotate(90 1340 740)" fill="#224225"/>
<rect x="1140" y="840" width="100" height="100" transform="rotate(90 1140 840)" fill="#224225"/>
<rect x="1540" y="840" width="100" height="200" transform="rotate(90 1540 840)" fill="#224225"/>
<rect x="1458.5" y="940" width="100" height="318.502" transform="rotate(90 1458.5 940)" fill="#224225"/>
<rect x="940" y="940" width="100" height="100" fill="#224225"/>
<rect x="1440" y="940" width="100" height="100" fill="#224225"/>
<rect x="940" y="1040" width="100" height="100" fill="#224225"/>
<rect x="1440" y="1040" width="100" height="100" fill="#224225"/>
</svg>
