<svg width="655" height="595" viewBox="0 0 655 595" fill="none" xmlns="http://www.w3.org/2000/svg">
<path d="M653.692 286.814L631.806 282.821L537.656 228.375C530.995 224.525 520.102 224.55 513.466 228.423L470.632 253.444L458.693 251.262L458.771 266.199L459.042 266.246C459.626 268.185 461.196 270.04 463.768 271.54L574.866 335.785C581.527 339.636 592.42 339.61 599.056 335.737L648.781 306.682C651.273 305.236 652.824 303.428 653.436 301.546L653.754 301.608L653.676 286.798L653.692 286.814Z" fill="#F3797A" stroke="#F3797A" stroke-width="2.25" stroke-miterlimit="10" stroke-linecap="round" stroke-linejoin="round"/>
<path d="M648.694 281.092C655.355 284.942 655.372 291.28 648.72 295.153L598.996 324.208C592.344 328.097 581.467 328.123 574.806 324.256L463.708 260.011C457.047 256.16 457.029 249.822 463.681 245.949L513.406 216.894C520.058 213.005 530.935 212.98 537.596 216.846L648.694 281.092Z" fill="#304D41" stroke="#F3797A" stroke-width="2.25" stroke-miterlimit="10" stroke-linecap="round" stroke-linejoin="round"/>
<path d="M522.86 222.227C526.639 220.025 532.834 220.008 536.636 222.202L639.507 281.681C643.293 283.875 643.312 287.474 639.533 289.691L589.587 318.875C585.808 321.076 579.613 321.093 575.812 318.9L472.94 259.42C469.154 257.227 469.135 253.628 472.914 251.41L522.86 222.227Z" fill="#192A2F" stroke="#F3797A" stroke-width="2.25" stroke-linecap="round" stroke-linejoin="round"/>
<path d="M582.203 259.115C584.52 260.536 584.5 262.829 582.15 264.195L542.936 287.111C540.586 288.477 536.78 288.434 534.463 287.013C532.147 285.592 532.166 283.298 534.516 281.932L573.731 259.016C576.08 257.65 579.887 257.694 582.203 259.115Z" fill="#304D41" stroke="#F3797A" stroke-width="2.25" stroke-miterlimit="10" stroke-linecap="round" stroke-linejoin="round"/>
<path d="M564.969 246.976C567.285 248.397 567.266 250.69 564.916 252.056L525.702 274.972C523.352 276.338 519.546 276.295 517.229 274.874C514.912 273.453 514.932 271.159 517.282 269.793L556.496 246.877C558.846 245.511 562.652 245.555 564.969 246.976Z" fill="#304D41" stroke="#F3797A" stroke-width="2.25" stroke-miterlimit="10" stroke-linecap="round" stroke-linejoin="round"/>
<path d="M538.78 235.934L531.167 235.942L527.062 233.543L512.63 241.98L497.273 246.982L497.304 252.89L497.384 252.89C497.169 254.467 498.07 256.119 500.146 257.334L502.191 258.534C505.961 260.743 512.156 260.758 515.935 258.541L535.986 246.826C537.542 245.91 538.428 244.758 538.708 243.562L538.829 242.367L538.796 235.966L538.78 235.934Z" fill="#192A2F" stroke="#F3797A" stroke-width="2.25" stroke-miterlimit="10" stroke-linecap="round" stroke-linejoin="round"/>
<path d="M535.936 231.395C539.722 233.604 539.709 237.235 535.931 239.437L515.879 251.152C512.101 253.37 505.906 253.355 502.136 251.145L500.091 249.945C496.305 247.736 496.318 244.105 500.096 241.903L520.148 230.188C523.927 227.97 530.121 227.986 533.891 230.195L535.936 231.395Z" fill="#304D41" stroke="#F3797A" stroke-width="2.25" stroke-miterlimit="10" stroke-linecap="round" stroke-linejoin="round"/>
<path d="M598.935 288.743L607.448 293.508C611.33 295.685 611.586 299.092 608.014 301.117C604.442 303.142 598.389 303.031 594.508 300.854L585.995 296.089L601.015 287.554C602.365 286.782 602.262 285.493 600.793 284.673L585.587 276.169C584.118 275.349 581.84 275.313 580.491 276.069L563.93 285.488C562.581 286.26 562.683 287.549 564.153 288.369L579.358 296.873C580.828 297.693 583.105 297.729 584.455 296.973L594.505 291.251" fill="#192A2F"/>
<path d="M598.935 288.743L607.448 293.508C611.33 295.685 611.586 299.092 608.014 301.117C604.442 303.142 598.389 303.031 594.508 300.854L585.995 296.089L601.015 287.554C602.365 286.782 602.262 285.493 600.793 284.673L585.587 276.169C584.118 275.349 581.84 275.313 580.491 276.069L563.93 285.488C562.581 286.26 562.683 287.549 564.153 288.369L579.358 296.873C580.828 297.693 583.105 297.729 584.455 296.973L594.505 291.251" stroke="#F3797A" stroke-width="2.25" stroke-linecap="round" stroke-linejoin="round"/>
<path d="M590.074 287.675L586.576 285.719C586.257 285.529 585.81 285.436 585.38 285.422L583.214 285.386C582.768 285.388 582.338 285.263 582.018 285.09L579.143 283.48C578.457 283.102 577.405 283.076 576.786 283.429C576.167 283.783 576.202 284.388 576.889 284.766L579.764 286.376C580.083 286.565 580.292 286.803 580.309 287.057L580.394 288.092C580.411 288.347 580.604 288.585 580.939 288.774L584.597 290.825C585.283 291.204 586.335 291.23 586.954 290.876L590.193 289.028C590.812 288.674 590.777 288.069 590.09 287.691L590.074 287.675Z" fill="#192A2F" stroke="#F3797A" stroke-width="2.25" stroke-linecap="round" stroke-linejoin="round"/>
<path d="M629.446 383.932H616.715L616.355 386.144L347.635 235.033C340.73 231.149 329.49 231.221 322.639 235.177L13.4756 413.676V410.152H1.22918V423.981C1.1033 424.682 1.1033 425.401 1.22918 426.121C1.6248 428.368 3.29722 430.544 6.26441 432.253L278.455 590.143C285.306 594.117 296.51 594.118 303.361 590.161L624.339 404.847C628.224 402.617 629.878 399.578 629.357 396.682L629.464 383.95L629.446 383.932Z" fill="#F3797A" stroke="#F3797A" stroke-width="2.25" stroke-miterlimit="10" stroke-linecap="round" stroke-linejoin="round"/>
<path d="M6.26364 404.019C-0.587878 407.976 -0.587878 414.467 6.26364 418.424L278.454 576.314C285.305 580.288 296.509 580.288 303.36 576.332L624.339 391.018C631.19 387.061 631.154 380.659 624.267 376.775L347.652 221.222C340.747 217.338 329.508 217.41 322.656 221.366L6.26364 404.019Z" fill="#224225" stroke="#F3797A" stroke-width="2.25" stroke-linecap="round" stroke-linejoin="round"/>
<path d="M618.746 387.781C621.965 385.928 621.947 382.925 618.71 381.109L575.641 356.886L243.621 548.584L279.713 569.516C286.367 573.383 297.282 573.401 303.954 569.534L618.764 387.781H618.746Z" fill="#192A2F" stroke="#F3797A" stroke-width="2.25" stroke-linecap="round" stroke-linejoin="round"/>
<path d="M343.318 226.221C338.373 223.434 330.316 223.488 325.389 226.329L11.6041 407.508C8.52899 409.288 8.51101 412.201 11.6041 414L243.62 548.584L575.64 356.886L343.318 226.239V226.221Z" stroke="#F3797A" stroke-width="2.25" stroke-miterlimit="10"/>
<path d="M140.507 396.232L84.5977 428.53L145.758 463.974L201.685 431.695L140.507 396.232Z" stroke="#F3797A" stroke-width="2.25" stroke-linecap="round" stroke-linejoin="round"/>
<path d="M201.685 431.694L145.758 463.974L206.936 499.436L262.845 467.157L201.685 431.694Z" stroke="#F3797A" stroke-width="2.25" stroke-linecap="round" stroke-linejoin="round"/>
<path d="M262.826 396.395L201.648 360.932L140.506 396.233L201.684 431.695L262.826 396.395Z" stroke="#F3797A" stroke-width="2.25" stroke-linecap="round" stroke-linejoin="round"/>
<path d="M206.936 499.437L267.7 534.665L323.609 502.386L262.845 467.157L206.936 499.437Z" stroke="#F3797A" stroke-width="2.25" stroke-linecap="round" stroke-linejoin="round"/>
<path d="M323.986 431.856L384.751 467.085L443.285 433.295L382.503 398.066L323.986 431.856Z" stroke="#F3797A" stroke-width="2.25" stroke-linecap="round" stroke-linejoin="round"/>
<path d="M262.844 467.157L323.608 502.386L384.75 467.085L323.986 431.856L262.844 467.157Z" stroke="#F3797A" stroke-width="2.25" stroke-linecap="round" stroke-linejoin="round"/>
<path d="M321.343 362.604L260.183 327.142L201.648 360.932L262.827 396.394L321.343 362.604Z" stroke="#F3797A" stroke-width="2.25" stroke-linecap="round" stroke-linejoin="round"/>
<path d="M262.826 396.394L323.986 431.856L382.503 398.066L321.343 362.604L262.826 396.394Z" stroke="#F3797A" stroke-width="2.25" stroke-linecap="round" stroke-linejoin="round"/>
<path d="M321.344 362.604L382.504 398.066L441.614 363.935L380.454 328.472L321.344 362.604Z" stroke="#F3797A" stroke-width="2.25" stroke-linecap="round" stroke-linejoin="round"/>
<path d="M380.454 328.473L319.294 293.028L260.184 327.142L321.344 362.604L380.454 328.473Z" stroke="#F3797A" stroke-width="2.25" stroke-linecap="round" stroke-linejoin="round"/>
<path d="M382.504 398.066L443.286 433.295L502.396 399.163L441.614 363.935L382.504 398.066Z" stroke="#F3797A" stroke-width="2.25" stroke-linecap="round" stroke-linejoin="round"/>
<path d="M201.684 431.695L262.844 467.157L323.986 431.856L262.826 396.394L201.684 431.695Z" stroke="#F3797A" stroke-width="2.25" stroke-linecap="round" stroke-linejoin="round"/>
<path d="M434.006 297.56L372.846 262.098L319.293 293.028L380.453 328.473L434.006 297.56Z" stroke="#F3797A" stroke-width="2.25" stroke-linecap="round" stroke-linejoin="round"/>
<path d="M206.937 499.437L182.857 513.337L243.604 548.566L267.701 534.665L206.937 499.437Z" stroke="#F3797A" stroke-width="2.25" stroke-linecap="round" stroke-linejoin="round"/>
<path d="M140.505 396.233L85.9271 364.583L30 396.88L84.5963 428.53L140.505 396.233Z" stroke="#F3797A" stroke-width="2.25" stroke-linecap="round" stroke-linejoin="round"/>
<path d="M30.0007 396.88L11.6041 407.508C8.52899 409.288 8.51101 412.201 11.6041 414L60.5717 442.413L84.597 428.548L30.0007 396.898V396.88Z" stroke="#F3797A" stroke-width="2.25" stroke-linecap="round" stroke-linejoin="round"/>
<path d="M201.648 360.931L147.07 329.281L85.9277 364.582L140.506 396.232L201.648 360.931Z" stroke="#F3797A" stroke-width="2.25" stroke-linecap="round" stroke-linejoin="round"/>
<path d="M260.183 327.142L205.587 295.51L147.07 329.282L201.649 360.932L260.183 327.142Z" stroke="#F3797A" stroke-width="2.25" stroke-linecap="round" stroke-linejoin="round"/>
<path d="M145.758 463.975L121.715 477.857L182.857 513.338L206.936 499.437L145.758 463.975Z" stroke="#F3797A" stroke-width="2.25" stroke-linecap="round" stroke-linejoin="round"/>
<path d="M441.613 363.935L502.396 399.164L555.949 368.251L495.167 333.022L441.613 363.935Z" stroke="#F3797A" stroke-width="2.25" stroke-linecap="round" stroke-linejoin="round"/>
<path d="M84.5975 428.53L60.5723 442.395L121.714 477.858L145.758 463.975L84.5975 428.53Z" stroke="#F3797A" stroke-width="2.25" stroke-linecap="round" stroke-linejoin="round"/>
<path d="M495.168 333.023L513.942 322.179L451.847 287.256L434.008 297.56L495.168 333.023Z" stroke="#F3797A" stroke-width="2.25" stroke-linecap="round" stroke-linejoin="round"/>
<path d="M434.008 297.56L451.847 287.256L389.752 252.333L372.848 262.098L434.008 297.56Z" stroke="#F3797A" stroke-width="2.25" stroke-linecap="round" stroke-linejoin="round"/>
<path d="M555.95 368.251L575.642 356.868L513.942 322.179L495.168 333.022L555.95 368.251Z" stroke="#F3797A" stroke-width="2.25" stroke-linecap="round" stroke-linejoin="round"/>
<path d="M389.751 252.333L343.319 226.221C338.373 223.434 330.317 223.488 325.39 226.329L318.232 230.465L372.829 262.115L389.751 252.351V252.333Z" stroke="#F3797A" stroke-width="2.25" stroke-linecap="round" stroke-linejoin="round"/>
<path d="M319.292 293.028L264.696 261.378L205.586 295.51L260.182 327.142L319.292 293.028Z" stroke="#F3797A" stroke-width="2.25" stroke-miterlimit="10"/>
<path d="M319.292 293.028L264.696 261.378L205.586 295.51L260.182 327.142L319.292 293.028Z" stroke="#F3797A" stroke-width="2.25" stroke-linecap="round" stroke-linejoin="round"/>
<path d="M372.847 262.097L318.251 230.465L264.697 261.378L319.294 293.028L372.847 262.097Z" stroke="#F3797A" stroke-width="2.25" stroke-linecap="round" stroke-linejoin="round"/>
<path d="M299.1 542.075H271.299V551.408C271.407 553.368 272.791 555.328 275.471 556.857C280.956 560.004 289.767 560.112 295.144 557.108C297.914 555.562 299.208 553.494 299.083 551.408H299.1V542.075Z" fill="#192A2F" stroke="#F3797A" stroke-width="2.25" stroke-miterlimit="10" stroke-linecap="round" stroke-linejoin="round"/>
<path d="M294.909 536.626C300.394 539.773 300.502 544.754 295.125 547.757C289.748 550.76 280.954 550.652 275.451 547.505C269.967 544.358 269.859 539.377 275.236 536.374C280.613 533.371 289.406 533.479 294.909 536.626Z" fill="#304D41" stroke="#F3797A" stroke-width="2.25" stroke-linecap="round" stroke-linejoin="round"/>
<path d="M326.954 525.98H299.152V535.313C299.26 537.273 300.645 539.233 303.324 540.762C308.809 543.909 317.621 544.017 322.998 541.014C325.767 539.467 327.062 537.399 326.936 535.313H326.954V525.98Z" fill="#192A2F" stroke="#F3797A" stroke-width="2.25" stroke-miterlimit="10" stroke-linecap="round" stroke-linejoin="round"/>
<path d="M322.782 520.548C328.267 523.695 328.375 528.677 322.998 531.68C317.621 534.683 308.827 534.575 303.325 531.428C297.84 528.281 297.732 523.3 303.109 520.297C308.486 517.293 317.279 517.401 322.782 520.548Z" fill="#304D41" stroke="#F3797A" stroke-width="2.25" stroke-linecap="round" stroke-linejoin="round"/>
<path d="M354.882 509.867H327.08V519.2C327.188 521.16 328.573 523.121 331.252 524.649C336.737 527.796 345.549 527.904 350.926 524.901C353.695 523.354 354.99 521.286 354.864 519.2H354.882V509.867Z" fill="#192A2F" stroke="#F3797A" stroke-width="2.25" stroke-miterlimit="10" stroke-linecap="round" stroke-linejoin="round"/>
<path d="M350.692 504.418C356.177 507.565 356.285 512.546 350.908 515.55C345.531 518.553 336.737 518.445 331.235 515.298C325.75 512.151 325.642 507.169 331.019 504.166C336.396 501.163 345.189 501.271 350.692 504.418Z" fill="#304D41" stroke="#F3797A" stroke-width="2.25" stroke-linecap="round" stroke-linejoin="round"/>
<path d="M589.578 376.019C596.951 380.605 596.843 387.924 589.309 392.276L422.66 488.485C415.125 492.837 402.933 492.621 395.56 488.035C388.187 483.45 388.295 476.131 395.83 471.779L562.478 375.57C570.013 371.218 582.205 371.434 589.578 376.019Z" fill="#304D41" stroke="#F3797A" stroke-width="2.25" stroke-linecap="round" stroke-linejoin="round"/>
<path d="M335.076 136.215L314.359 108.871L248.819 123.84L198.27 146.252C190.206 149.833 185.938 158.777 188.254 167.291L213.754 226.612L210.828 239.516L268.742 230.086L255.682 160.342L335.098 136.194L335.076 136.215Z" fill="#224225" stroke="#F3797A" stroke-width="2.25" stroke-linecap="round" stroke-linejoin="round"/>
<path d="M347.117 393.671L350.793 397.155L351.209 397.571L351.786 397.468C366.318 394.873 384.006 397.558 397.498 405.239L398.137 405.608C407.698 411.227 413.067 418.229 414.277 424.876C415.471 431.434 412.669 437.944 405.21 442.838H405.209C397.713 447.763 387.003 450.042 375.691 449.646C364.395 449.249 352.631 446.186 343.087 440.578H343.086C329.469 432.586 324.442 421.872 327.617 413.174L328.006 412.11L326.939 411.729L321.127 409.648L245.31 381.537L270.582 364.916L296.978 347.555L347.117 393.671Z" fill="#192A2F" stroke="#F3797A" stroke-width="2.25"/>
<path d="M287.937 357.413L273.868 349.306L280.688 299.851C281.911 291.036 281.439 282.072 279.337 273.429L268.743 230.107L264.475 207.331C264.475 207.331 253.902 226.611 213.754 226.611L207.77 249.109C204.532 261.269 203.352 273.901 204.275 286.447L213.754 415.061C213.754 419.972 216.392 424.497 220.681 426.921L246.717 441.654C255.81 446.802 265.611 436.186 259.778 427.521L249.977 413.002L250.492 363.525C250.813 363.611 251.135 363.718 251.478 363.761L284.248 368.243C290.618 369.123 293.535 360.587 287.98 357.37L287.937 357.413Z" fill="#224225" stroke="#F3797A" stroke-width="2.25" stroke-linecap="round" stroke-linejoin="round"/>
<path d="M251.328 272.914L264.445 355.327L251.328 363.905V272.914Z" fill="#192A2F"/>
<path d="M250.471 364.019L284.227 368.737C290.597 369.616 293.514 361.081 287.959 357.864L273.89 349.757L250.642 343.795L250.492 364.04L250.471 364.019Z" fill="#304D41" stroke="#F3797A" stroke-width="2.25" stroke-linecap="round" stroke-linejoin="round"/>
<path d="M213.753 415.061C213.753 415.061 189.865 416.732 193.143 426.878C197.143 439.257 246.716 441.676 246.716 441.676L213.774 415.061H213.753Z" fill="#192A2F"/>
<path d="M259.756 427.543L249.955 413.024V412.402L212.66 400.264L213.754 415.04C213.754 419.951 216.392 424.477 220.681 426.9L246.717 441.634C255.81 446.781 265.611 436.165 259.778 427.501L259.756 427.543Z" fill="#304D41" stroke="#F3797A" stroke-width="2.25" stroke-linecap="round" stroke-linejoin="round"/>
<path d="M212.06 232.96L207.77 249.109C204.532 261.269 203.352 273.901 204.275 286.447L212.66 400.285L249.955 412.423L251.264 240.016" fill="#224225"/>
<path d="M212.06 232.96L207.77 249.109C204.532 261.269 203.352 273.901 204.275 286.447L212.66 400.285L249.955 412.423L251.264 240.016" stroke="#F3797A" stroke-width="2.25" stroke-linecap="round" stroke-linejoin="round"/>
<path d="M474.414 106.448C474.414 90.9847 463.455 71.9832 450.051 64.2625L346.4 4.42707C340.524 1.03853 335.141 0.35225 330.916 1.93928C329.672 2.4111 328.557 3.07594 327.549 3.91235L303.4 18.0884L322.016 42.8376L321.973 83.1782C321.973 98.6411 332.911 117.643 346.315 125.363L413.013 163.881L442.064 201.237L465.492 187.772C466.822 187.279 468.023 186.528 469.117 185.585L469.181 185.542C472.462 182.625 474.435 177.735 474.435 171.194V106.426L474.414 106.448ZM415.672 140.483L363.901 110.587C358.796 107.627 354.614 100.4 354.614 94.5019V64.2625L406.386 94.1374C411.49 97.097 415.672 104.324 415.672 110.222V140.483Z" fill="#224225" stroke="#F3797A" stroke-width="2.25" stroke-linecap="round" stroke-linejoin="round"/>
<path d="M376.676 375.029L354.478 387.852L271.301 325.898L293.521 313.076L376.676 375.029Z" fill="#192A2F" stroke="#F3797A" stroke-width="2.25"/>
<path d="M395.146 365.541V144.686C395.146 133.427 386.01 124.312 374.772 124.312C363.534 124.312 354.398 133.427 354.398 144.686V389.197L269.277 325.78L268.205 379.567L349.723 413.023L365.7 431.403C370.976 437.472 379.812 438.952 386.761 434.942C391.951 431.939 395.168 426.406 395.168 420.401V365.52L395.146 365.541Z" fill="#F3797A" stroke="#F3797A" stroke-width="2.25" stroke-linecap="round" stroke-linejoin="round"/>
<path d="M450.992 119.98C450.992 104.517 440.033 85.5159 426.629 77.7952L323 17.9597C309.596 10.2175 298.637 16.5442 298.615 32.0285L298.551 96.7323C298.551 112.195 309.488 131.197 322.892 138.917L426.65 198.817C440.054 206.559 451.013 200.233 451.013 184.748V119.98H450.992ZM415.67 140.483L363.898 110.587C358.794 107.627 354.612 100.4 354.612 94.5019V64.2625L406.383 94.1373C411.488 97.0969 415.67 104.324 415.67 110.222V140.483Z" fill="#F3797A" stroke="#224225" stroke-width="2.25" stroke-linecap="round" stroke-linejoin="round"/>
<path d="M337.167 57.99C338.382 57.2877 340.254 57.2715 342.597 58.6296L342.599 58.6306L353.467 64.9109V94.5017C353.467 97.6962 354.592 101.171 356.347 104.209C358.102 107.247 360.551 109.957 363.314 111.559L363.576 111.712H363.599L414.547 141.132V153.736C414.547 156.444 413.596 158.061 412.38 158.764C411.165 159.467 409.292 159.483 406.949 158.125L406.947 158.124L343.681 121.6C341.33 120.243 339.136 117.861 337.527 115.072C335.919 112.283 334.957 109.195 334.957 106.491L335 63.0193V63.0183C335 60.3105 335.951 58.6929 337.167 57.99Z" fill="#192A2F" stroke="#F3797A" stroke-width="2.25"/>
<path d="M210.902 184.898L267.113 169.35L326.026 142.992L311.614 121.588L252.723 144.686L193.123 157.168" fill="#224225"/>
<path d="M210.902 184.898L267.113 169.35L326.026 142.992L311.614 121.588L252.723 144.686L193.123 157.168" stroke="#F3797A" stroke-width="2.25" stroke-linecap="round" stroke-linejoin="round"/>
<path d="M311.613 121.588L314.744 105.568C315.431 102.05 318.047 99.2195 321.5 98.2544L335.269 94.4155C338.636 93.4719 342.217 94.7801 344.212 97.6539L352.404 109.514C354.57 112.645 353.584 116.977 350.281 118.864L340.909 124.247V131.432C340.909 137.823 335.74 142.992 329.349 142.992H326.047L311.635 121.588H311.613Z" fill="#F3797A" stroke="#224225" stroke-width="2.25" stroke-linecap="round" stroke-linejoin="round"/>
<path d="M321.201 105.675L346.229 98.7053" stroke="#224225" stroke-width="2.25" stroke-linecap="round" stroke-linejoin="round"/>
<path d="M325.488 113.117L350.516 106.126" stroke="#224225" stroke-width="2.25" stroke-linecap="round" stroke-linejoin="round"/>
<path d="M235.308 87.403C234.3 86.8025 233.249 86.2664 232.198 85.7731C223.169 81.591 211.996 81.5267 201.959 86.6095C185.209 95.0808 177.982 114.533 185.831 130.081C192.158 142.585 206.312 148.74 220.338 146.23C215.384 143.936 211.073 140.419 207.942 135.786C207.256 134.757 206.591 133.706 206.033 132.569C200.779 122.146 202.302 109.986 208.929 100.528C211.695 100.292 219.352 99.7776 226.343 100.893C223.512 108.699 223.705 117.321 227.587 125.02C227.608 125.084 227.651 125.127 227.673 125.17C232.584 136.601 254.459 134.628 259.607 118.264C254.416 118.522 250.063 114.64 249.484 109.493C249.098 106.04 248.133 102.651 246.481 99.413C243.886 94.2873 239.962 90.2554 235.286 87.403" fill="#192A2F"/>
<path d="M235.308 87.403C234.3 86.8025 233.249 86.2664 232.198 85.7731C223.169 81.591 211.996 81.5267 201.959 86.6095C185.209 95.0808 177.982 114.533 185.831 130.081C192.158 142.585 206.312 148.74 220.338 146.23C215.384 143.936 211.073 140.419 207.942 135.786C207.256 134.757 206.591 133.706 206.033 132.569C200.779 122.146 202.302 109.986 208.929 100.528C211.695 100.292 219.352 99.7776 226.343 100.893C223.512 108.699 223.705 117.321 227.587 125.02C227.608 125.084 227.651 125.127 227.673 125.17C232.584 136.601 254.459 134.628 259.607 118.264C254.416 118.522 250.063 114.64 249.484 109.493C249.098 106.04 248.133 102.651 246.481 99.413C243.886 94.2873 239.962 90.2554 235.286 87.403" stroke="#F3797A" stroke-width="2.25" stroke-linecap="round" stroke-linejoin="round"/>
<path d="M226.364 100.872C219.351 99.7564 211.695 100.271 208.95 100.507C202.323 109.965 200.779 122.125 206.055 132.548C206.634 133.685 207.277 134.736 207.963 135.765C209.979 136.28 212.081 136.58 214.247 136.58C220.681 136.58 226.557 134.178 231.04 130.253C236.401 125.578 239.79 118.694 239.79 111.037C239.79 104.732 233.42 101.987 226.364 100.872Z" fill="#F3797A" stroke="#F3797A" stroke-width="2.25" stroke-linecap="round" stroke-linejoin="round"/>
<path d="M225.742 110.372L230.889 123.476" stroke="#224225" stroke-width="2.25" stroke-linecap="round" stroke-linejoin="round"/>
<path d="M208.929 100.528L193.123 92.8286" stroke="#F3797A" stroke-width="2.25" stroke-linecap="round" stroke-linejoin="round"/>
<path d="M216.562 183.332L259.176 179.558L257.997 172.824L216.562 183.332Z" fill="#192A2F"/>
<path d="M66.8205 318.215C66.8205 318.215 48.7486 319.146 49.5389 328.124C50.3291 337.102 79.7089 338.152 79.7089 338.152L66.8385 318.215H66.8205Z" fill="#192A2F"/>
<path d="M107.62 246.853H56.4043L64.3887 327.453C64.0471 330.276 65.8094 333.189 69.6578 335.401C76.6531 339.411 87.8565 339.555 94.69 335.725C98.6643 333.495 100.265 330.42 99.5634 327.453H99.7433L107.638 246.853H107.62Z" fill="#F3797A" stroke="#F3797A" stroke-width="2.25" stroke-linecap="round" stroke-linejoin="round"/>
<path d="M63.7052 245.216C73.5958 239.678 89.8345 239.893 99.9409 245.684C103.034 247.446 105.174 249.532 106.415 251.744C109.274 246.745 107.116 240.936 99.9409 236.836C89.8165 231.046 73.5958 230.83 63.7052 236.369C56.8177 240.217 54.8216 245.828 57.6449 250.845C58.8138 248.777 60.8279 246.853 63.7052 245.234V245.216Z" fill="#192A2F" stroke="#F3797A" stroke-width="2.25" stroke-linecap="round" stroke-linejoin="round"/>
<path d="M64.1028 256.887C74.2272 262.677 90.4478 262.893 100.338 257.354C103.234 255.736 105.23 253.812 106.399 251.744C105.158 249.55 103.018 247.464 99.9249 245.683C89.8005 239.893 73.5798 239.677 63.6892 245.216C60.7939 246.834 58.7978 248.758 57.6289 250.827C58.8697 253.02 61.0097 255.106 64.1028 256.887Z" fill="#192A2F" stroke="#F3797A" stroke-width="2.25" stroke-miterlimit="10" stroke-linecap="round" stroke-linejoin="round"/>
<path d="M84.3142 251.439L79.1351 216.642L84.3142 197.364L73.3086 168.124V124.695" stroke="#F3797A" stroke-width="2.25" stroke-linecap="round" stroke-linejoin="round"/>
<path d="M78.8125 182.744L93.6844 160.463" stroke="#F3797A" stroke-width="2.25" stroke-linecap="round" stroke-linejoin="round"/>
<path d="M82.013 205.96L61.3146 192.796L45.7773 188.067" stroke="#F3797A" stroke-width="2.25" stroke-linecap="round" stroke-linejoin="round"/>
<path d="M73.3087 137.624C80.4496 137.624 86.2384 131.835 86.2384 124.694C86.2384 117.554 80.4496 111.765 73.3087 111.765C66.1678 111.765 60.3789 117.554 60.3789 124.694C60.3789 131.835 66.1678 137.624 73.3087 137.624Z" fill="#192A2F" stroke="#F3797A" stroke-width="2.25" stroke-miterlimit="10" stroke-linecap="round" stroke-linejoin="round"/>
<path d="M78.3439 115.829C82.9835 113.869 86.2384 109.265 86.2384 103.906C86.2384 96.7671 80.4479 90.9766 73.3087 90.9766C66.1694 90.9766 60.3789 96.7671 60.3789 103.906C60.3789 109.571 64.0115 114.372 69.0647 116.135" fill="#192A2F"/>
<path d="M78.3439 115.829C82.9835 113.869 86.2384 109.265 86.2384 103.906C86.2384 96.7671 80.4479 90.9766 73.3087 90.9766C66.1694 90.9766 60.3789 96.7671 60.3789 103.906C60.3789 109.571 64.0115 114.372 69.0647 116.135" stroke="#F3797A" stroke-width="2.25" stroke-miterlimit="10" stroke-linecap="round" stroke-linejoin="round"/>
<path d="M110.193 153.287C117.334 153.287 123.123 147.498 123.123 140.358C123.123 133.217 117.334 127.428 110.193 127.428C103.053 127.428 97.2637 133.217 97.2637 140.358C97.2637 147.498 103.053 153.287 110.193 153.287Z" fill="#192A2F" stroke="#F3797A" stroke-width="2.25" stroke-miterlimit="10" stroke-linecap="round" stroke-linejoin="round"/>
<path d="M38.0255 176.468C45.1664 176.468 50.9552 170.679 50.9552 163.538C50.9552 156.397 45.1664 150.608 38.0255 150.608C30.8846 150.608 25.0957 156.397 25.0957 163.538C25.0957 170.679 30.8846 176.468 38.0255 176.468Z" fill="#192A2F" stroke="#F3797A" stroke-width="2.25" stroke-miterlimit="10" stroke-linecap="round" stroke-linejoin="round"/>
<path d="M28.8379 168.105C23.6588 169.796 19.9004 174.669 19.9004 180.406C19.9004 187.545 25.6909 193.336 32.8301 193.336C39.9694 193.336 45.7599 187.545 45.7599 180.406C45.7599 175.101 42.5769 170.551 38.0092 168.555" fill="#192A2F"/>
<path d="M28.8379 168.105C23.6588 169.796 19.9004 174.669 19.9004 180.406C19.9004 187.545 25.6909 193.336 32.8301 193.336C39.9694 193.336 45.7599 187.545 45.7599 180.406C45.7599 175.101 42.5769 170.551 38.0092 168.555" stroke="#F3797A" stroke-width="2.25" stroke-miterlimit="10" stroke-linecap="round" stroke-linejoin="round"/>
<path d="M119.363 166.559C126.504 166.559 132.293 160.77 132.293 153.629C132.293 146.488 126.504 140.699 119.363 140.699C112.222 140.699 106.434 146.488 106.434 153.629C106.434 160.77 112.222 166.559 119.363 166.559Z" fill="#192A2F" stroke="#F3797A" stroke-width="2.25" stroke-miterlimit="10" stroke-linecap="round" stroke-linejoin="round"/>
<path d="M71.0965 94.1412C71.0965 89.2319 67.1222 85.2756 62.2308 85.2756C57.3395 85.2756 53.3652 89.2499 53.3652 94.1412C53.3652 99.0326 57.3395 103.007 62.2308 103.007C63.7954 103.007 65.252 102.611 66.5288 101.91" fill="#192A2F"/>
<path d="M71.0965 94.1412C71.0965 89.2319 67.1222 85.2756 62.2308 85.2756C57.3395 85.2756 53.3652 89.2499 53.3652 94.1412C53.3652 99.0326 57.3395 103.007 62.2308 103.007C63.7954 103.007 65.252 102.611 66.5288 101.91" stroke="#F3797A" stroke-width="2.25" stroke-miterlimit="10" stroke-linecap="round" stroke-linejoin="round"/>
<path d="M109.598 153.629C109.454 153.197 109.292 152.766 109.113 152.334C108.717 151.435 108.231 150.608 107.656 149.835C107.296 149.349 106.883 148.882 106.451 148.432C106.02 147.982 105.552 147.587 105.066 147.227C103.646 146.148 102.009 145.357 100.229 144.943C99.2759 144.727 98.2868 144.602 97.2618 144.602C90.1225 144.602 84.332 150.392 84.332 157.531C84.332 164.671 90.1225 170.461 97.2618 170.461C103.412 170.461 108.555 166.181 109.868 160.427" fill="#192A2F"/>
<path d="M109.598 153.629C109.454 153.197 109.292 152.766 109.113 152.334C108.717 151.435 108.231 150.608 107.656 149.835C107.296 149.349 106.883 148.882 106.451 148.432C106.02 147.982 105.552 147.587 105.066 147.227C103.646 146.148 102.009 145.357 100.229 144.943C99.2759 144.727 98.2868 144.602 97.2618 144.602C90.1225 144.602 84.332 150.392 84.332 157.531C84.332 164.671 90.1225 170.461 97.2618 170.461C103.412 170.461 108.555 166.181 109.868 160.427" stroke="#F3797A" stroke-width="2.25" stroke-miterlimit="10" stroke-linecap="round" stroke-linejoin="round"/>
<path d="M50.9571 195.673C58.098 195.673 63.8869 189.885 63.8869 182.744C63.8869 175.603 58.098 169.814 50.9571 169.814C43.8162 169.814 38.0273 175.603 38.0273 182.744C38.0273 189.885 43.8162 195.673 50.9571 195.673Z" fill="#192A2F" stroke="#F3797A" stroke-width="2.25" stroke-miterlimit="10" stroke-linecap="round" stroke-linejoin="round"/>
</svg>
