<svg width="1300" height="900" viewBox="0 0 1300 900" fill="none" xmlns="http://www.w3.org/2000/svg">
<rect x="100" width="100" height="100" transform="rotate(90 100 0)" fill="#F3797A"/>
<rect x="500" width="100" height="100" transform="rotate(90 500 0)" fill="#F3797A"/>
<rect x="200" y="100" width="100" height="200" transform="rotate(90 200 100)" fill="#F3797A"/>
<rect x="600" y="100" width="100" height="200" transform="rotate(90 600 100)" fill="#F3797A"/>
<rect x="400" y="200" width="100" height="200" transform="rotate(90 400 200)" fill="#F3797A"/>
<rect y="200" width="100" height="100" fill="#F3797A"/>
<rect x="500" y="200" width="100" height="100" fill="#F3797A"/>
<rect y="300" width="100" height="100" fill="#F3797A"/>
<rect x="500" y="300" width="100" height="100" fill="#F3797A"/>
<rect x="900" width="100" height="100" transform="rotate(90 900 0)" fill="#F3797A"/>
<rect x="1100" width="100" height="200" transform="rotate(90 1100 0)" fill="#F3797A"/>
<rect x="800" y="100" width="100" height="100" transform="rotate(90 800 100)" fill="#F3797A"/>
<rect x="900" y="100" width="100" height="100" transform="rotate(90 900 100)" fill="#F3797A"/>
<rect x="1200" y="100" width="100" height="100" transform="rotate(90 1200 100)" fill="#F3797A"/>
<rect x="900" y="200" width="100" height="100" transform="rotate(90 900 200)" fill="#F3797A"/>
<rect x="1300" y="200" width="100" height="200" transform="rotate(90 1300 200)" fill="#F3797A"/>
<rect x="1100" y="300" width="100" height="200" transform="rotate(90 1100 300)" fill="#F3797A"/>
<rect x="1200" y="300" width="100" height="100" transform="rotate(90 1200 300)" fill="#F3797A"/>
<rect x="100" y="500" width="100" height="100" transform="rotate(90 100 500)" fill="#F3797A"/>
<rect x="200" y="500" width="100" height="100" transform="rotate(90 200 500)" fill="#F3797A"/>
<rect x="400" y="500" width="100" height="200" transform="rotate(90 400 500)" fill="#F3797A"/>
<rect x="500" y="500" width="100" height="100" transform="rotate(90 500 500)" fill="#F3797A"/>
<rect x="600" y="500" width="100" height="100" transform="rotate(90 600 500)" fill="#F3797A"/>
<rect x="100" y="600" width="100" height="100" transform="rotate(90 100 600)" fill="#F3797A"/>
<rect x="300" y="600" width="100" height="100" transform="rotate(90 300 600)" fill="#F3797A"/>
<rect x="400" y="600" width="100" height="100" transform="rotate(90 400 600)" fill="#F3797A"/>
<rect x="600" y="600" width="100" height="100" transform="rotate(90 600 600)" fill="#F3797A"/>
<rect x="300" y="700" width="100" height="100" transform="rotate(90 300 700)" fill="#F3797A"/>
<rect x="300" y="800" width="100" height="100" transform="rotate(90 300 800)" fill="#F3797A"/>
<rect x="400" y="800" width="100" height="100" transform="rotate(90 400 800)" fill="#F3797A"/>
<rect x="1100" y="500" width="100" height="200" transform="rotate(90 1100 500)" fill="#F3797A"/>
<rect x="900" y="600" width="100" height="100" transform="rotate(90 900 600)" fill="#F3797A"/>
<rect x="1300" y="600" width="100" height="200" transform="rotate(90 1300 600)" fill="#F3797A"/>
<rect x="1218.5" y="700" width="100" height="318.502" transform="rotate(90 1218.5 700)" fill="#F3797A"/>
<rect x="700" y="700" width="100" height="100" fill="#F3797A"/>
<rect x="1200" y="700" width="100" height="100" fill="#F3797A"/>
<rect x="700" y="800" width="100" height="100" fill="#F3797A"/>
<rect x="1200" y="800" width="100" height="100" fill="#F3797A"/>
</svg>
